<svg width="40" height="40" viewBox="0 0 40 40" fill="none" xmlns="http://www.w3.org/2000/svg">
<path d="M38.8561 5.46842C38.2676 4.87897 37.3129 4.87795 36.7244 5.46592L18.6391 23.5036L12.1139 16.4166C11.5501 15.8046 10.5968 15.7649 9.98374 16.3287C9.37116 16.8925 9.33194 17.8462 9.89577 18.4588L17.4837 26.6995C17.7616 27.0015 18.1505 27.1769 18.5606 27.1854C18.5716 27.1859 18.5823 27.1859 18.5928 27.1859C18.9913 27.1859 19.3747 27.0276 19.6571 26.7462L38.8531 7.60053C39.443 7.01264 39.4441 6.05787 38.8561 5.46842Z" fill="#E4E4E4"/>
<path d="M38.4924 18.4924C37.6598 18.4924 36.9849 19.1673 36.9849 20C36.9849 29.3659 29.3659 36.9849 20 36.9849C10.6347 36.9849 3.01508 29.3659 3.01508 20C3.01508 10.6347 10.6347 3.01508 20 3.01508C20.8327 3.01508 21.5076 2.34023 21.5076 1.50758C21.5076 0.674844 20.8327 0 20 0C8.97187 0 0 8.97187 0 20C0 31.0277 8.97187 40 20 40C31.0277 40 40 31.0277 40 20C40 19.1673 39.3252 18.4924 38.4924 18.4924Z" fill="#E4E4E4"/>
</svg>
