<svg width="25" height="38" viewBox="0 0 25 38" fill="none" xmlns="http://www.w3.org/2000/svg">
<path d="M22.7251 10.0724V7.41871H23.1168C24.0804 7.42134 24.8667 6.64849 24.8813 5.68521V1.93609C24.867 0.972219 24.081 0.198781 23.1168 0.199953H2.08311C1.11895 0.198781 0.33291 0.972219 0.318848 1.93609V5.68521C0.333496 6.64849 1.11953 7.42134 2.08311 7.41871H2.4751V10.0724C2.47363 11.3293 3.04639 12.5178 4.03018 13.2998L11.0831 18.9385L4.16875 24.3019C3.15654 25.0818 2.56475 26.2891 2.56885 27.5674V30.4812H2.08311C1.11953 30.4786 0.333496 31.2514 0.318848 32.2147V35.9638C0.33291 36.9277 1.11895 37.7012 2.08311 37.7H23.1168C24.081 37.7012 24.867 36.9277 24.8813 35.9638V32.2147C24.8667 31.2514 24.0804 30.4786 23.1168 30.4812H22.8188V27.5858C22.813 26.295 22.2083 25.08 21.182 24.2969L14.1271 18.9312L21.1712 13.2995C22.1547 12.5175 22.7271 11.3287 22.7251 10.0724ZM2.19385 2.07495H23.0063V5.54371H2.19385V2.07495ZM23.0063 35.825H2.19385V32.3562H3.34463C3.39854 32.3562 3.45303 32.3715 3.50957 32.3715C3.56582 32.3715 3.6209 32.3562 3.6748 32.3562H21.7041C21.7577 32.3562 21.8128 32.3715 21.869 32.3715C21.9256 32.3715 21.9804 32.3562 22.034 32.3562H23.0063V35.825ZM20.9438 27.5858V30.4812H4.44385V27.5674C4.44238 26.8689 4.76553 26.2094 5.31924 25.7835L12.6048 20.1321L20.0465 25.789C20.6078 26.2168 20.9395 26.8803 20.9438 27.5858ZM19.9984 11.8352L12.6019 17.7497L5.20264 11.8352C4.66416 11.4087 4.3501 10.7594 4.3501 10.0724V7.41871H20.8501V10.0724C20.8501 10.7594 20.5366 11.4084 19.9984 11.8352Z" fill="#E4E4E4"/>
</svg>
